<svg xmlns="http://www.w3.org/2000/svg" width="30" height="30" class="svg-c1"><path fill="white" d="M20.23 21.048c-.25 0-.454.203-.454.454v1.12c-.002 1.082-.88 1.96-1.96 1.96H6.87c-1.083-.001-1.96-.878-1.962-1.96V6.87C4.9 5.787 5.788 4.9 6.87 4.9h10.944c1.082.002 1.96.88 1.96 1.96v2.963c0 .25.203.454.454.454s.454-.203.454-.454V6.87c-.002-1.584-1.285-2.867-2.87-2.87H6.87C5.286 4.002 4.002 5.285 4 6.87v15.75c.002 1.584 1.286 2.867 2.87 2.87h10.944c1.584-.002 2.867-1.285 2.87-2.87V21.5c-.001-.25-.204-.453-.454-.453zm6.254-11.305l-.227-.227a2.21 2.21 0 0 0-1.546-.64c-.58 0-1.136.23-1.546.64l-8.096 8.096a1.21 1.21 0 0 0-.356.839l-.027 1.63a1.21 1.21 0 0 0 .348.87 1.22 1.22 0 0 0 .865.363h.02l1.63-.027a1.21 1.21 0 0 0 .839-.356l8.096-8.096a2.19 2.19 0 0 0 .001-3.092zM17.745 20.3c-.056.056-.132.1-.212.1l-1.63.027a.28.28 0 0 1-.222-.09.3.3 0 0 1-.09-.222l.027-1.628a.3.3 0 0 1 .09-.212l6.7-6.7 2.035 2.035zm8.1-8.1l-.743.743-2.035-2.035.743-.743a1.28 1.28 0 0 1 1.808 0l.227.227a1.28 1.28 0 0 1-.003 1.812zm-8.95-3.633H7.787c-.25 0-.454.203-.454.454s.203.454.454.454h9.108c.162 0 .312-.087.393-.227s.08-.314 0-.454-.23-.227-.393-.227zm.455 3.417a.45.45 0 0 0-.133-.32c-.085-.084-.2-.133-.32-.133h-9.1c-.25 0-.454.203-.454.454s.203.454.454.454h9.108a.45.45 0 0 0 .32-.133c.084-.085.133-.2.133-.32zm-9.563 2.51c-.25 0-.454.203-.454.454s.203.454.454.454h7.8c.25 0 .454-.203.454-.454s-.203-.454-.454-.454z"></path></svg>