<svg xmlns="http://www.w3.org/2000/svg" fill="white" width="30" height="30" class="svg-c1" viewBox="0 0 52 52"><path d="M29.947 22.523a1.1 1.1 0 0 0 .2.155.98.98 0 0 0 .221.116c.156.064.323.096.492.094a1.35 1.35 0 0 0 .49-.1 1.2 1.2 0 0 0 .224-.123 1.28 1.28 0 0 0 .34-1.783c-.097-.138-.22-.258-.36-.352-.07-.045-.145-.084-.222-.117-.398-.156-.848-.1-1.205.127a1.44 1.44 0 0 0-.193.164 1 1 0 0 0-.155.2c-.043.073-.087.143-.116.22a1.3 1.3 0 0 0-.07.24 1.29 1.29 0 0 0 .2.96c.046.07.098.137.156.198zM41.2 24.67a1.08 1.08 0 0 0 .2.155c.07.048.143.088.222.117a1.24 1.24 0 0 0 .243.072c.082.016.165.023.25.02s.168-.007.25-.027a.97.97 0 0 0 .24-.071 1.16 1.16 0 0 0 .224-.123 1.28 1.28 0 0 0 .34-1.783c-.047-.07-.102-.135-.164-.193a1.2 1.2 0 0 0-.2-.16c-.07-.045-.144-.084-.22-.117a1.32 1.32 0 0 0-1.206.127 1.5 1.5 0 0 0-.193.164 1 1 0 0 0-.155.2.97.97 0 0 0-.116.222 1.23 1.23 0 0 0-.072.24 1.3 1.3 0 0 0 .2.961 1.4 1.4 0 0 0 .16.196zm-6.197 10.736a5.04 5.04 0 0 1-.933-.088c-2.332-.453-4.034-2.468-4.1-4.843a.79.79 0 0 1 .77-.8.77.77 0 0 1 .8.772 3.46 3.46 0 0 0 6.649 1.268.78.78 0 0 1 1.03-.422c.4.178.6.63.42 1.03a5.06 5.06 0 0 1-4.649 3.082zm-.207 9.324a13.18 13.18 0 0 1-2.476-.235 12.95 12.95 0 0 1-10.411-14.738l3.123-16.375a2.18 2.18 0 0 1 2.547-1.731l21.238 4.05a2.18 2.18 0 0 1 1.732 2.548l-3.12 16.35a12.95 12.95 0 0 1-12.635 10.133zM27.17 13.187a.6.6 0 0 0-.591.49L23.457 30.03c-.918 6.074 3.132 11.785 9.167 12.93s11.894-2.7 13.262-8.68L49 17.96c.062-.327-.153-.643-.48-.706l-21.238-4.05a.71.71 0 0 0-.11-.015z"></path><path d="M11.512 22.52c.083.01.168.01.25 0s.166-.02.246-.047a1.25 1.25 0 0 0 .236-.094 1.21 1.21 0 0 0 .208-.138.94.94 0 0 0 .178-.176c.057-.062.105-.13.144-.205s.075-.154.1-.236a1.28 1.28 0 0 0-.842-1.608 1.18 1.18 0 0 0-.248-.049 1.23 1.23 0 0 0-.253 0 1.72 1.72 0 0 0-.246.047 1.31 1.31 0 0 0-.865.85 1.58 1.58 0 0 0-.05.248 1 1 0 0 0 0 .251.97.97 0 0 0 .047.246 1.23 1.23 0 0 0 .092.232 1.3 1.3 0 0 0 .75.631 1.45 1.45 0 0 0 .251.049zm10.16-5.315a1.1 1.1 0 0 0 .251 0 .94.94 0 0 0 .246-.047c.162-.046.313-.125.444-.232a.75.75 0 0 0 .18-.176 1.01 1.01 0 0 0 .143-.206 1.2 1.2 0 0 0 .1-.235 1.28 1.28 0 0 0-.842-1.608 1.16 1.16 0 0 0-.248-.05 1.22 1.22 0 0 0-.253 0 1.72 1.72 0 0 0-.246.047 1.32 1.32 0 0 0-.865.849 1.43 1.43 0 0 0-.049.248 1 1 0 0 0 0 .251.94.94 0 0 0 .047.246 1.6 1.6 0 0 0 .092.23 1.3 1.3 0 0 0 .751.631c.082.024.165.04.25.05zm-3.024 14.792a.79.79 0 0 1-.757-.575 5.06 5.06 0 0 1 2.513-5.819c.975-.514 2.094-.7 3.18-.5a.79.79 0 0 1 .643.909.79.79 0 0 1-.909.643 3.42 3.42 0 0 0-2.183.345c-1.444.762-2.163 2.426-1.728 4a.79.79 0 0 1-.13.688c-.148.196-.38.312-.628.312zm2.364 7.748a13.02 13.02 0 0 1-11.3-6.559l-7.73-14.77c-.556-1.066-.144-2.38.92-2.94L22.06 5.45a2.18 2.18 0 0 1 2.94.92l1.308 2.5a.79.79 0 0 1-.335 1.065.79.79 0 0 1-1.065-.335L23.6 7.1a.6.6 0 0 0-.814-.254L3.63 16.873a.6.6 0 0 0-.255.815l7.717 14.745a11.39 11.39 0 0 0 9.995 5.739.79.79 0 0 1 .79.785.79.79 0 0 1-.785.79z"></path></svg>