<svg xmlns="http://www.w3.org/2000/svg" fill="white" width="30" height="30" viewBox="0 0 30 30" class="svg-c1"><path d="M10.482 14.932a.91.91 0 0 0 .642-1.55c-.36-.34-.923-.34-1.284 0a.91.91 0 0 0 .642 1.55zm7.926-1.552a.91.91 0 1 0 1.284 0c-.36-.34-.923-.34-1.284 0zm-3.645 13.4c-4.816.012-9.116-3.017-10.724-7.557-.07 0-.14.007-.208.007-2.118 0-3.835-1.717-3.835-3.836S1.713 11.55 3.83 11.55c.068 0 .137 0 .208.007a11.39 11.39 0 0 1 21.447 0c.07 0 .14-.007.208-.007 2.118 0 3.835 1.717 3.835 3.836s-1.717 3.835-3.835 3.835c-.068 0-.137 0-.208-.007-1.608 4.54-5.907 7.57-10.723 7.557zm-10.1-8.557l.118.37a10.48 10.48 0 0 0 19.956 0l.12-.37.383.06c1.145.2 2.294-.317 2.928-1.3a2.93 2.93 0 0 0-2.928-4.49l-.376.064-.12-.37a10.48 10.48 0 0 0-19.956 0l-.118.37-.384-.06c-1.145-.2-2.294.317-2.928 1.3a2.93 2.93 0 0 0 2.928 4.49z"></path><path d="M14.767 9.286c-.484.047-.967-.1-1.33-.432s-.58-.78-.593-1.268a1.68 1.68 0 0 1 .508-1.2c.383-.357.893-.547 1.416-.526.25 0 .454.203.454.454s-.203.454-.454.454a1.1 1.1 0 0 0-.783.27.76.76 0 0 0-.232.546c0 .363.266.787 1.015.787a2.21 2.21 0 0 0 1.582-.556 1.63 1.63 0 0 0 .5-1.179c-.023-.514-.262-.995-.657-1.325s-.9-.48-1.42-.4c-.25 0-.454-.203-.454-.454s.203-.454.454-.454a2.73 2.73 0 0 1 2.986 2.643c.003.7-.275 1.35-.77 1.83a3.1 3.1 0 0 1-2.219.819zm-.001 12.174a3.95 3.95 0 0 1-3.848-3.117c-.034-.16.02-.323.14-.432a.46.46 0 0 1 .445-.094c.145.05.27.18.304.338.296 1.398 1.53 2.4 2.96 2.4s2.664-1 2.96-2.4c.034-.16.15-.288.304-.338s.324-.014.445.094a.45.45 0 0 1 .14.432 3.95 3.95 0 0 1-3.849 3.117z"></path></svg>