<svg class="svg-c1" xmlns="http://www.w3.org/2000/svg" fill="white" width="30" height="30" viewBox="0 0 30 30"><path d="M20.452 25.23H6.098a2.1 2.1 0 0 1-2.1-2.1v-7.94a2.1 2.1 0 0 1 2.1-2.1h14.354a2.1 2.1 0 0 1 2.1 2.1v1.348l2.75-1.583c.468-.27 1.046-.27 1.514 0s.757.77.757 1.31v5.8c0 .54-.29 1.04-.757 1.31s-1.046.27-1.514 0l-2.75-1.588v1.347a2.1 2.1 0 0 1-2.098 2.093zM6.098 14.004a1.19 1.19 0 0 0-1.19 1.189v7.94a1.19 1.19 0 0 0 1.19 1.19h14.354a1.19 1.19 0 0 0 1.19-1.19v-2.134c0-.162.087-.312.227-.393s.313-.08.454 0l3.432 1.982c.187.108.418.108.605 0s.303-.308.303-.524v-5.8c0-.216-.115-.416-.303-.524s-.418-.108-.605 0l-3.432 1.982c-.14.08-.313.08-.454 0s-.227-.23-.227-.393v-2.134a1.19 1.19 0 0 0-1.19-1.189zm19.43 1.342z"></path><path d="M17.38 14.004a4.5 4.5 0 1 1 0-9 4.5 4.5 0 0 1 4.5 4.5 4.51 4.51 0 0 1-4.5 4.5zm0-8.1c-1.985 0-3.594 1.61-3.594 3.594s1.61 3.594 3.594 3.594 3.594-1.61 3.594-3.594a3.6 3.6 0 0 0-3.594-3.59z"></path><path transform="translate(-8 0)" d="M17.38 14.004a4.5 4.5 0 1 1 0-9 4.5 4.5 0 0 1 4.5 4.5 4.51 4.51 0 0 1-4.5 4.5zm0-8.1c-1.985 0-3.594 1.61-3.594 3.594s1.61 3.594 3.594 3.594 3.594-1.61 3.594-3.594a3.6 3.6 0 0 0-3.594-3.59z"></path></svg>