<svg xmlns="http://www.w3.org/2000/svg" fill="white" width="30" height="30" viewBox="0 0 30 30"><path class="svg-c1" d="M2.775 15.903l2.528-2.528v9.717c.002 1.46 1.184 2.64 2.643 2.643h14.71c1.46-.002 2.64-1.184 2.643-2.643v-9.717l2.53 2.528c.114.117.283.164.44.122s.282-.165.323-.323-.005-.327-.122-.44l-9.907-9.907a4.61 4.61 0 0 0-6.515 0L2.142 15.26c-.173.178-.172.462.004.638s.46.178.638.004zm15.228 8.923h-5.4v-5.8a2.7 2.7 0 0 1 5.4 0zm-11.79-12.36l6.474-6.475a3.7 3.7 0 0 1 5.231 0l6.474 6.475V23.09c-.001.957-.777 1.733-1.734 1.734H18.91v-5.8a3.61 3.61 0 0 0-3.609-3.609 3.61 3.61 0 0 0-3.609 3.609v5.8H7.947c-.957-.001-1.733-.777-1.735-1.734z"></path></svg>