<svg width="30" height="30" viewBox="0 0 22 27" fill="white" xmlns="http://www.w3.org/2000/svg"><path class="svg-c1" d="M21.1054 7.11391C20.7354 6.66738 20.1613 6.41221 19.5489 6.41221H19.23C19.23 6.38669 19.2427 6.36118 19.2427 6.3229C19.2427 4.09022 17.4311 2.27855 15.1984 2.27855C14.9432 2.27855 14.7136 2.30407 14.4839 2.34234C13.5015 1.02825 11.9578 0.25 10.2865 0.25C8.02826 0.25 6.03798 1.69168 5.32352 3.80954C3.93288 4.00091 2.83567 5.05984 2.54223 6.41221H2.45292C1.82777 6.41221 1.26641 6.66738 0.896424 7.11391C0.577469 7.49666 0.437128 7.96871 0.526436 8.45352L3.37152 24.8733C3.52461 25.7409 4.32838 26.366 5.298 26.366H16.6911C17.6607 26.366 18.4772 25.7409 18.6303 24.8733L21.4754 8.45352C21.5647 7.96871 21.4371 7.49666 21.1054 7.11391ZM5.70627 4.72813C5.9104 4.71537 6.08901 4.57503 6.1528 4.3709C6.65037 2.5082 8.35997 1.20687 10.2992 1.20687C11.7537 1.20687 13.106 1.93408 13.8843 3.15887C13.9991 3.33748 14.216 3.42679 14.4201 3.363C14.6625 3.28645 14.9177 3.26094 15.1984 3.26094C16.8952 3.26094 18.2859 4.63882 18.2859 6.34842C18.2859 6.37394 18.2859 6.39945 18.2859 6.43773H3.51186C3.80529 5.4681 4.67285 4.7664 5.70627 4.72813ZM15.428 7.36908L12.7105 25.3964H9.29132L6.58658 7.36908H15.428ZM4.31562 24.7075L1.47054 8.28767C1.41951 8.0325 1.53433 7.84113 1.62364 7.72631C1.81501 7.50942 2.12121 7.36908 2.45292 7.36908H2.93774H5.61696L8.3217 25.3964H5.298C4.81319 25.3964 4.37941 25.103 4.31562 24.7075ZM17.699 24.7075C17.6352 25.103 17.2014 25.3964 16.7038 25.3964H13.6801L16.3976 7.36908H18.7196H19.5617C19.8934 7.36908 20.1996 7.49666 20.391 7.72631C20.493 7.84113 20.5951 8.0325 20.5568 8.28767L17.699 24.7075Z"></path></svg>