<svg xmlns="http://www.w3.org/2000/svg" width="30"  fill="white" height="30"><path class="svg-c1" d="M25.03 21.6H5.882c-1.04-.002-1.88-.843-1.882-1.882V7.882c.002-1.04.843-1.88 1.882-1.882h19.15c1.04.002 1.88.843 1.882 1.882v11.825c-.001 1.04-.843 1.88-1.882 1.883zM5.882 6.9c-.538.001-.973.436-.974.974V19.71c.001.538.436.973.974.974h19.15c.538-.001.973-.436.974-.974V7.882c-.001-.538-.436-.973-.974-.974zm8.608 9.27a1.15 1.15 0 0 1-.573-.155c-.357-.203-.576-.583-.573-.994v-2.478a1.16 1.16 0 0 1 .574-.993c.354-.205.792-.205 1.146 0l2.147 1.24a1.15 1.15 0 0 1 0 1.988l-2.146 1.24a1.16 1.16 0 0 1-.575.155zm0-3.866a.24.24 0 0 0-.12.033c-.074.042-.12.12-.12.206v2.478a.24.24 0 0 0 .358.207L16.757 14a.24.24 0 0 0 0-.413l-2.146-1.24c-.036-.02-.077-.03-.12-.03zm9.155 11.614H7.27c-.25 0-.454-.203-.454-.454s.203-.454.454-.454h16.375c.25 0 .454.203.454.454s-.203.454-.454.454z"></path></svg>